# xmcd
#
# Track frame offsets:
#	150
#	12103
#	26215
#	36935
#	47803
#	60460
#	69968
#	82595
#	96825
#	111533
#	123538
#	135485
#	146320
#	157740
#	172060
#	190230
#	201785
#	214075
#	226255
#	237298
#
# Disc length: 3302 seconds
#
# Revision: 0
# Processed by: cddbd v1.5.1PL0 Copyright (c) Steve Scherf et al.
# Submitted via: dBpowerAMP V4.0
#
DISCID=0c0ce414
DTITLE=Various Artist - The Very Best Country Hits 2
DYEAR=1900
DGENRE=Country
TTITLE0=Jolene - Dolly Parton
TTITLE1=My Own Peculiar Way - Willy Nelson
TTITLE2=Walk On By - Leroy Van Dyke
TTITLE3=Spring Fever - Loretta Lynn
TTITLE4=Crystal Chandeliers - Charley Pride
TTITLE5=The Girl Most Likely - Jeannie C. Riley
TTITLE6=Ruben James - Kenny Rogers
TTITLE7=The Wreck Of Number Nine - Jim Reeves
TTITLE8=Love In The First Degree - Alabama
TTITLE9=The End Of The World - Skeeter Davis
TTITLE10=Three Hearts In A Tangle - Roy Drusky
TTITLE11=Daydreams About Night Things - Ronnie Milsap
TTITLE12=Love Is No Excuse - Jim Reeves ft Dottie West
TTITLE13=Marie Laveau - Bobby Bare
TTITLE14=Southern Nights - Glen Campbell
TTITLE15=White Lightning - George Jones
TTITLE16=I Walk The Line - Johnny Cash
TTITLE17=Don't Think Twice - Waylon Jennings
TTITLE18=Cowboy Boots - Dave Dudley
TTITLE19=When You're Hot You're Hot - Jerry Reed
EXTD=CBJ te H
EXTT0=
EXTT1=
EXTT2=
EXTT3=
EXTT4=
EXTT5=
EXTT6=
EXTT7=
EXTT8=
EXTT9=
EXTT10=
EXTT11=
EXTT12=
EXTT13=
EXTT14=
EXTT15=
EXTT16=
EXTT17=
EXTT18=
EXTT19=
PLAYORDER=
